<?xml version="1.0" encoding="UTF-8"?>
<svg version="1.1" xmlns="http://www.w3.org/2000/svg" width="206" height="245">
<path d="M0 0 C0.83144531 0.2769873 1.66289063 0.55397461 2.51953125 0.83935547 C4.13480849 1.38232445 5.74470984 1.94166094 7.34765625 2.52001953 C17.56958972 5.97189458 25.97412325 2.7011907 35.8828125 -0.63671875 C38.08514615 -1.36827209 40.28824471 -2.09752763 42.4921875 -2.82421875 C43.45608398 -3.14777344 44.41998047 -3.47132812 45.41308594 -3.8046875 C61.93814361 -8.86010909 79.8367828 -5.54826171 94.8203125 2.328125 C101.26340181 6.28667398 106.74682215 11.1950472 111.1328125 17.36328125 C109.61277806 21.28198275 107.26707051 23.00498078 103.9453125 25.48828125 C94.45018104 33.08190078 87.94892236 43.19364787 86.1328125 55.36328125 C84.91029651 73.27016911 87.38294381 87.66343883 99.1640625 101.80078125 C104.69379353 107.73121742 110.9913901 111.60527386 118.1328125 115.36328125 C116.98658945 121.56100854 115.2565398 127.00930676 112.5078125 132.67578125 C112.15372314 133.4128833 111.79963379 134.14998535 111.43481445 134.90942383 C108.21138026 141.46547651 104.47393876 147.48225459 100.1328125 153.36328125 C99.71628418 153.93175781 99.29975586 154.50023437 98.87060547 155.0859375 C90.66018174 166.20528284 81.43961134 178.43200104 67.1328125 181.36328125 C57.18707922 182.39156893 48.27369022 179.64395854 39.01953125 176.20703125 C23.00542283 170.50950856 9.76097192 173.05167981 -5.92504883 178.48803711 C-15.61510353 181.79008363 -24.16106879 183.71781744 -33.9921875 179.55078125 C-59.36605129 164.60793487 -74.87603986 133.30561487 -83.1796875 106.11328125 C-83.42227295 105.32211914 -83.6648584 104.53095703 -83.91479492 103.71582031 C-87.26328845 92.2345947 -88.25901163 81.0503656 -88.2421875 69.11328125 C-88.24131134 68.43041046 -88.24043518 67.74753967 -88.23953247 67.04397583 C-88.15242275 46.45322795 -83.17423481 28.80409457 -68.8671875 13.36328125 C-67.90425781 12.31914063 -67.90425781 12.31914063 -66.921875 11.25390625 C-47.9686263 -7.33901453 -23.78344993 -8.06020651 0 0 Z " fill="#B3B3B3" transform="translate(87.8671875,63.63671875)"/>
<path d="M0 0 C1.8871875 0.0309375 1.8871875 0.0309375 3.8125 0.0625 C4.49169059 16.11152204 0.17123485 28.99814267 -10.4375 41.375 C-18.18872074 49.46837989 -27.9050123 57.4729991 -39.48046875 58.296875 C-42.39623978 58.31054802 -45.27785614 58.24247797 -48.1875 58.0625 C-50.96353153 45.19180836 -45.34412017 33.06821168 -38.4765625 22.40625 C-30.36756955 11.32053812 -14.23415966 -0.23334688 0 0 Z " fill="#B5B5B5" transform="translate(151.1875,-0.0625)"/>
<path d="M0 0 C0.66 0.33 1.32 0.66 2 1 C0.93458984 1.92232422 0.93458984 1.92232422 -0.15234375 2.86328125 C-1.07144531 3.67152344 -1.99054687 4.47976562 -2.9375 5.3125 C-4.31228516 6.51326172 -4.31228516 6.51326172 -5.71484375 7.73828125 C-8.20513976 9.86238922 -8.20513976 9.86238922 -9 13 C-9.99 13 -10.98 13 -12 13 C-10.44997253 9.11602311 -7.99523379 6.97020381 -4.875 4.25 C-3.96492188 3.45078125 -3.05484375 2.6515625 -2.1171875 1.828125 C-1.06917969 0.92320313 -1.06917969 0.92320313 0 0 Z " fill="#CFCFCF" transform="translate(28,69)"/>
<path d="M0 0 C0.66 0.33 1.32 0.66 2 1 C1.38125 1.2475 0.7625 1.495 0.125 1.75 C-2.15543159 2.81738099 -2.15543159 2.81738099 -2.9375 5.0625 C-3.288125 5.701875 -3.63875 6.34125 -4 7 C-6.625 7.75 -6.625 7.75 -9 8 C-6.14723863 5.06799526 -3.34920216 2.35684596 0 0 Z " fill="#BFBFBF" transform="translate(130,7)"/>
<path d="M0 0 C-0.66 1.98 -1.32 3.96 -2 6 C-2.99 6 -3.98 6 -5 6 C-4.625 3.5625 -4.625 3.5625 -4 1 C-2 0 -2 0 0 0 Z " fill="#BABABA" transform="translate(14,88)"/>
<path d="M0 0 C1.32 0.99 2.64 1.98 4 3 C3.67 4.65 3.34 6.3 3 8 C1.5 6.8125 1.5 6.8125 0 5 C-0.1875 2.3125 -0.1875 2.3125 0 0 Z " fill="#BCBCBC" transform="translate(30,215)"/>
<path d="M0 0 C1.32 0.66 2.64 1.32 4 2 C3.34 3.65 2.68 5.3 2 7 C1.01 6.67 0.02 6.34 -1 6 C-0.67 4.02 -0.34 2.04 0 0 Z " fill="#BCBCBC" transform="translate(177,64)"/>
</svg>
